<?xml version="1.0" encoding="utf-8"?>
<!-- Generator: Adobe Illustrator 24.3.0, SVG Export Plug-In . SVG Version: 6.00 Build 0)  -->
<svg version="1.1" id="Layer_1" xmlns="http://www.w3.org/2000/svg" xmlns:xlink="http://www.w3.org/1999/xlink" x="0px" y="0px"
	 viewBox="0 0 18 18" style="enable-background:new 0 0 18 18;" xml:space="preserve">
<style type="text/css">
	.st0{fill:#B7202E;}
</style>
<path id="path" class="st0" d="M2.6,2.7C4.3,0.9,6.6,0,9,0c2.4,0,4.7,0.9,6.4,2.6c1.7,1.7,2.7,4,2.6,6.4c0,2.4-0.9,4.7-2.6,6.4
	c-1.7,1.7-4,2.7-6.4,2.6c-4.9,0-9-3.9-9-8.8C0,9.1,0,9.1,0,9C0,6.6,0.9,4.4,2.6,2.7z M9.9,9.9V4.5H8.1v5.4H9.9z M9.9,13.5v-1.8H8.1
	v1.8H9.9z"/>
</svg>
